<svg xmlns="http://www.w3.org/2000/svg" viewBox="0 0 400 400" width="100%" height="100%">
    <defs>
        <radialGradient id="bgGrad" cx="50%" cy="50%" r="50%">
            <stop offset="0%" stop-color="#1a2647" />
            <stop offset="75%" stop-color="#0b0f19" />
            <stop offset="100%" stop-color="#05070b" />
        </radialGradient>
        <linearGradient id="cyberCyan" x1="0%" y1="0%" x2="100%" y2="100%">
            <stop offset="0%" stop-color="#00ffcc" />
            <stop offset="100%" stop-color="#306998" />
        </linearGradient>
        <path id="textArcTop" d="M 55,200 A 145,145 0 1,1 345,200" fill="none"/>
        <path id="textArcBottomPersian" d="M 41,200 A 159,159 0 0,0 359,200" fill="none"/>
    </defs>

    <circle cx="200" cy="200" r="185" fill="url(#bgGrad)" stroke="#306998" stroke-width="3" />
    <circle cx="200" cy="200" r="177" fill="none" stroke="#00ffcc" stroke-width="1.5" stroke-dasharray="5,5" opacity="0.7" />
    <circle cx="200" cy="200" r="135" fill="none" stroke="url(#cyberCyan)" stroke-width="2" />
    <circle cx="200" cy="200" r="127" fill="none" stroke="#ffe054" stroke-width="1" stroke-dasharray="8,4" opacity="0.5" />

    <g opacity="0.15">
        <line x1="110" y1="200" x2="290" y2="200" stroke="#00ffcc" stroke-width="1.5"/>
        <line x1="120" y1="220" x2="280" y2="220" stroke="#00ffcc" stroke-width="1"/>
        <line x1="140" y1="240" x2="260" y2="240" stroke="#00ffcc" stroke-width="1"/>
        <line x1="160" y1="260" x2="240" y2="260" stroke="#00ffcc" stroke-width="1"/>
        <line x1="120" y1="180" x2="280" y2="180" stroke="#306998" stroke-width="1"/>
        <line x1="140" y1="160" x2="260" y2="160" stroke="#306998" stroke-width="1"/>
        <line x1="160" y1="140" x2="240" y2="140" stroke="#306998" stroke-width="1"/>
    </g>

    <polygon points="200,135 255,167 255,233 200,265 145,233 145,167" fill="#0b0f19" stroke="#ffe054" stroke-width="2.5" />
    
    <circle cx="200" cy="135" r="3.5" fill="#ffe054"/>
    <circle cx="255" cy="167" r="3.5" fill="#00ffcc"/>
    <circle cx="255" cy="233" r="3.5" fill="#306998"/>
    <circle cx="200" cy="265" r="3.5" fill="#ffe054"/>
    <circle cx="145" cy="233" r="3.5" fill="#00ffcc"/>
    <circle cx="145" cy="167" r="3.5" fill="#306998"/>

    <text x="200" y="118" font-family="ui-monospace, monospace" font-size="14" font-weight="900" fill="#ffe054" text-anchor="middle" letter-spacing="1">PYTHON</text>
    <text x="270" y="158" font-family="ui-monospace, monospace" font-size="13" font-weight="900" fill="#00ffcc" text-anchor="start">TS</text>
    <text x="270" y="248" font-family="ui-monospace, monospace" font-size="13" font-weight="900" fill="#306998" text-anchor="start">GO</text>
    <text x="200" y="286" font-family="ui-monospace, monospace" font-size="14" font-weight="900" fill="#ffe054" text-anchor="middle" letter-spacing="1">RUST</text>
    <text x="130" y="248" font-family="ui-monospace, monospace" font-size="13" font-weight="900" fill="#00ffcc" text-anchor="end">JAVA</text>
    <text x="130" y="158" font-family="ui-monospace, monospace" font-size="13" font-weight="900" fill="#306998" text-anchor="end">C++</text>

    <text x="200" y="210" font-family="ui-monospace, monospace" font-size="28" font-weight="900" fill="#ffffff" text-anchor="middle" letter-spacing="2">C.S.A</text>
    <text x="200" y="235" font-family="ui-monospace, monospace" font-size="10" font-weight="bold" fill="#00ffcc" text-anchor="middle" letter-spacing="1.5">EST. 2026</text>

    <text font-family="ui-monospace, monospace" font-size="15" font-weight="900" fill="#ffffff" letter-spacing="4">
        <textPath href="#textArcTop" startOffset="50%" text-anchor="middle">CODING SOURCE AGENCY</textPath>
    </text>
    
    <text font-family="Segoe UI, Tahoma, sans-serif" font-size="20" font-weight="900" fill="#ffe054" style="word-spacing: 8px;">
        <textPath href="#textArcBottomPersian" startOffset="50%" text-anchor="middle">آژانس منبع کدنویسی</textPath>
    </text>
</svg>
